#!OML:ASF E:\emotionWalksFemale\Project 1\Capture day 1\Session 1\Female1.ASF
:FULLY-SPECIFIED
:DEGREES
298
root 8.78116 19.3254 9.62863 -161.016 -2.82253 -180.25
lowerback 18.0267 0.481142 2.75878
upperback -1.38582 1.2142 0.258918
thorax -11.6498 0.378498 -1.61493
lowerneck -14.2325 -4.66357 -7.48665
upperneck 8.28855 -5.3348 4.40696
head 5.12531 -2.56283 2.12049
rclavicle -6.55989e-015 -6.36111e-015
rhumerus 59.9732 -41.9975 -42.2391
rradius 32.9431
rwrist 6.74432
rhand -3.73711 -48.0079
rfingers 7.12502
rthumb 22.0064 -76.7759
lclavicle -6.55989e-015 -6.36111e-015
lhumerus 77.0271 53.9411 61.931
lradius 29.8298
lwrist -10.4494
lhand -8.39425 -38.6345
lfingers 7.12502
lthumb 17.5295 -9.40481
rfemur -17.13 10.705 21.2335
rtibia 22.3304
rfoot -9.30712 -38.8675
rtoes 54.5649
lfemur -19.252 -19.5417 -19.538
ltibia 24.7789
lfoot -19.822 34.1936
ltoes 60.3933
299
root 8.77456 19.3766 9.43884 -160.879 -2.32319 -179.991
lowerback 18.5373 0.618857 3.03849
upperback -0.977355 1.43125 0.170242
thorax -11.4619 0.45553 -1.93553
lowerneck -14.7111 -4.59879 -7.3519
upperneck 8.35439 -5.23559 4.36444
head 5.21289 -2.50773 2.08645
rclavicle -5.76476e-015 -1.59028e-015
rhumerus 58.5764 -40.5592 -42.1353
rradius 32.3273
rwrist 6.84072
rhand -4.51648 -48.7963
rfingers 7.12502
rthumb 21.2579 -77.6506
lclavicle -5.76476e-015 -1.59028e-015
lhumerus 75.6797 53.5977 62.1693
lradius 29.9954
lwrist -10.4118
lhand -7.95876 -39.0874
lfingers 7.12502
lthumb 17.9485 -9.8956
rfemur -19.2425 11.7337 20.7259
rtibia 21.9632
rfoot -9.30616 -39.0556
rtoes 54.0432
lfemur -21.0535 -19.6009 -18.7593
ltibia 24.7194
lfoot -22.0329 32.8959
ltoes 61.3894
300
root 8.76857 19.4173 9.25389 -160.748 -1.85169 -179.727
lowerback 19.1103 0.736732 3.29098
upperback -0.609029 1.61706 0.0787615
thorax -11.3529 0.517495 -2.23842
lowerneck -14.9578 -4.52592 -7.10621
upperneck 8.25105 -5.16145 4.3128
head 5.20815 -2.46431 2.03471
rclavicle -8.94531e-015 4.37326e-015
rhumerus 56.0776 -38.8401 -40.7427
rradius 32.3378
rwrist 5.89835
rhand -4.93205 -49.06
rfingers 7.12502
rthumb 20.8587 -77.9586
lclavicle -8.94531e-015 4.37326e-015
lhumerus 73.6647 53.0516 61.4556
lradius 30.1115
lwrist -10.4189
lhand -7.38262 -39.4579
lfingers 7.12502
lthumb 18.5028 -10.3179
rfemur -21.3769 12.7569 20.1828
rtibia 21.5358
rfoot -10.4268 -39.337
rtoes 54.2411
lfemur -22.9271 -19.5346 -17.9646
ltibia 24.701
lfoot -22.7076 32.5462
ltoes 61.7595
301
root 8.7646 19.4483 9.07139 -160.586 -1.14638 -179.559
lowerback 19.7889 0.965177 3.26055
upperback -0.328358 1.89264 -0.0137547
thorax -11.4014 0.634243 -2.4136
lowerneck -15.1537 -4.53477 -7.00457
upperneck 8.22638 -5.17717 4.28305
head 5.22945 -2.4688 2.00454
rclavicle -7.35503e-015 -1.51076e-014
rhumerus 54.0997 -36.976 -40.0787
rradius 32.5387
rwrist 5.43171
rhand -5.14338 -49.1612
rfingers 7.12502
rthumb 20.6557 -78.0821
lclavicle -7.35503e-015 -1.51076e-014
lhumerus 72.0925 52.2284 61.3193
lradius 30.0247
lwrist -11.3163
lhand -6.93739 -39.9668
lfingers 7.12502
lthumb 18.931 -10.868
rfemur -23.609 14.1319 19.3595
rtibia 20.9921
rfoot -11.9973 -40.0543
rtoes 54.6263
lfemur -24.8611 -19.1828 -17.3574
ltibia 24.78
lfoot -21.6999 33.4353
ltoes 60.9491
302
root 8.76295 19.4695 8.88929 -160.312 -0.158588 -179.483
lowerback 20.3747 1.32916 2.98241
upperback -0.100847 2.28552 -0.12702
thorax -11.4554 0.819614 -2.50716
lowerneck -15.4063 -4.61844 -6.95423
upperneck 8.23375 -5.2539 4.01545
head 5.26767 -2.52173 1.90023
rclavicle 2.04748e-014 7.55382e-015
rhumerus 51.4231 -34.3141 -38.0356
rradius 33.0545
rwrist 3.89111
rhand -5.39113 -49.8488
rfingers 7.12502
rthumb 20.4176 -78.7954
lclavicle 2.04748e-014 7.55382e-015
lhumerus 70.5416 51.1681 61.3094
lradius 29.8891
lwrist -12.5799
lhand -6.86231 -40.9819
lfingers 7.12502
lthumb 19.0032 -11.8902
rfemur -26.0022 15.8268 18.1706
rtibia 20.2453
rfoot -14.4661 -40.5917
rtoes 55.4475
lfemur -26.9328 -18.6027 -16.9125
ltibia 25.0416
lfoot -21.3029 34.0588
ltoes 60.1751
303
root 8.76758 19.4748 8.70612 -160.075 0.515873 -179.206
lowerback 20.8922 1.3155 2.80856
upperback 0.173066 2.6157 -0.104438
thorax -11.4331 1.14479 -2.52627
lowerneck -15.5308 -4.63098 -7.02376
upperneck 7.95532 -5.23088 3.86638
head 5.19626 -2.52353 1.86592
rclavicle -1.27222e-014 -2.78299e-015
rhumerus 52.3546 -32.8427 -40.6793
rradius 32.3697
rwrist 6.506
rhand -4.34111 -49.3979
rfingers 7.12502
rthumb 21.4264 -78.2331
lclavicle -1.27222e-014 -2.78299e-015
lhumerus 67.8472 50.0328 60.0676
lradius 30.0269
lwrist -13.239
lhand -6.91508 -41.9395
lfingers 7.12502
lthumb 18.9525 -12.8429
rfemur -28.2709 17.8619 17.0431
rtibia 19.3419
rfoot -21.1518 -39.5619
rtoes 58.1705
lfemur -29.0759 -17.7497 -16.2546
ltibia 25.4439
lfoot -20.2151 34.4908
ltoes 59.4842
304
root 8.7747 19.4627 8.52686 -159.99 0.746027 -178.698
lowerback 21.5066 1.30865 3.0241
upperback 0.582075 2.74362 0.0634658
thorax -11.3059 1.22655 -2.51966
lowerneck -15.7938 -4.52662 -7.18738
upperneck 7.5288 -5.05057 3.96404
head 5.10129 -2.43333 1.93809
rclavicle 1.43125e-014 -4.77083e-015
rhumerus 51.45 -30.4366 -40.6728
rradius 32.5601
rwrist 6.99199
rhand -3.70887 -49.0637
rfingers 7.12502
rthumb 22.0335 -77.8285
lclavicle 1.43125e-014 -4.77083e-015
lhumerus 65.6692 48.9203 59.008
lradius 29.9677
lwrist -13.9668
lhand -6.78331 -42.5633
lfingers 7.12502
lthumb 19.0792 -13.4791
rfemur -30.4591 20.5699 15.8268
rtibia 18.4513
rfoot -30.856 -36.6941
rtoes 61.5583
lfemur -31.1637 -16.6597 -15.401
ltibia 25.8868
lfoot -17.6321 35.2108
ltoes 58.4119
305
root 8.77798 19.4395 8.34871 -159.855 1.02461 -178.433
lowerback 22.1013 1.34558 3.12121
upperback 0.973637 2.88721 0.106354
thorax -11.1825 1.31834 -2.5898
lowerneck -16.0482 -4.41053 -7.31895
upperneck 7.08369 -4.87146 4.1407
head 5 -2.33771 2.0302
rclavicle -1.03368e-014 4.37326e-015
rhumerus 50.2588 -27.7953 -39.871
rradius 32.7619
rwrist 7.10351
rhand -4.19061 -48.3528
rfingers 7.12502
rthumb 21.5709 -77.1714
lclavicle -1.03368e-014 4.37326e-015
lhumerus 63.4426 47.5239 57.5388
lradius 29.9496
lwrist -14.4482
lhand -6.60829 -42.9938
lfingers 7.12502
lthumb 19.2475 -13.9262
rfemur -32.9409 23.7901 13.7223
rtibia 17.6135
rfoot -40.3841 -32.2448
rtoes 63.9462
lfemur -33.2827 -15.6417 -14.8868
ltibia 26.3892
lfoot -15.0625 35.9818
ltoes 57.2291
306
root 8.77834 19.4057 8.17226 -159.523 1.4061 -178.577
lowerback 22.6282 1.50205 3.02725
upperback 1.01624 3.07769 -0.071563
thorax -11.408 1.40402 -2.81736
lowerneck -15.0901 -4.32822 -7.40208
upperneck 6.30065 -4.83243 4.42331
head 4.61031 -2.31082 2.15531
rclavicle 4.57205e-015 1.27222e-014
rhumerus 48.5928 -24.6658 -38.2959
rradius 32.7959
rwrist 7.01994
rhand -4.62346 -47.8197
rfingers 7.12502
rthumb 21.1552 -76.6855
lclavicle 4.57205e-015 1.27222e-014
lhumerus 59.9274 45.2317 54.637
lradius 30.3199
lwrist -14.177
lhand -6.66016 -43.4622
lfingers 7.12502
lthumb 19.1976 -14.3898
rfemur -36.0932 27.6095 10.2116
rtibia 16.8566
rfoot -48.8778 -27.0111
rtoes 65.3057
lfemur -35.6 -14.7237 -14.8404
ltibia 26.9195
lfoot -11.3793 36.6385
ltoes 54.6421
307
root 8.7778 19.3486 7.99774 -159.287 1.71365 -178.664
lowerback 23.2051 1.60282 3.0146
upperback 1.23567 3.23947 -0.21808
thorax -11.4574 1.48935 -3.04887
lowerneck -14.8643 -4.35135 -7.49434
upperneck 5.70126 -4.88242 4.64921
head 4.39937 -2.32848 2.24297
rclavicle 3.97569e-016 2.38542e-015
rhumerus 47.0754 -21.5273 -36.5844
rradius 33.1621
rwrist 7.03946
rhand -4.52556 -48.22
rfingers 7.12502
rthumb 21.2492 -77.0752
lclavicle 3.97569e-016 2.38542e-015
lhumerus 56.8994 42.9294 52.0578
lradius 30.8483
lwrist -13.8351
lhand -6.95957 -44.2799
lfingers 7.12502
lthumb 18.9097 -15.1791
rfemur -38.1781 27.1018 9.0849
rtibia 16.3005
rfoot -50.6844 -22.2529
rtoes 66.4327
lfemur -37.8306 -13.8288 -14.7839
ltibia 27.4153
lfoot -7.54058 36.5446
ltoes 50.4619
308
root 8.77906 19.2743 7.81622 -159.321 1.91825 -178.547
lowerback 23.9353 1.63396 3.12235
upperback 1.61538 3.38374 -0.266399
thorax -11.4057 1.57979 -3.24037
lowerneck -15.0389 -4.40715 -7.58166
upperneck 5.20278 -4.94849 4.80862
head 4.28265 -2.35682 2.30072
rclavicle 1.76918e-014 -2.78299e-015
rhumerus 45.9294 -18.8019 -35.7498
rradius 33.6921
rwrist 8.17057
rhand -3.98061 -48.0603
rfingers 7.12502
rthumb 21.7726 -76.8557
lclavicle 1.76918e-014 -2.78299e-015
lhumerus 53.3046 40.2959 48.5687
lradius 31.9054
lwrist -12.6372
lhand -7.29857 -44.8196
lfingers 7.12502
lthumb 18.5836 -15.6872
rfemur -40.0977 26.6351 8.40623
rtibia 15.8806
rfoot -50.2654 -23.1583
rtoes 65.8862
lfemur -39.6725 -13.0607 -14.5713
ltibia 27.9045
lfoot -5.82574 35.5849
ltoes 47.1853
309
root 8.78546 19.1879 7.62969 -159.45 2.03308 -178.573
lowerback 24.7214 1.63276 3.00021
upperback 1.98301 3.43322 -0.294325
thorax -11.4145 1.63843 -3.25229
lowerneck -15.4074 -4.45423 -7.5601
upperneck 4.91111 -5.00083 4.82895
head 4.2531 -2.38273 2.29474
rclavicle -1.74931e-014 1.59028e-015
rhumerus 44.9064 -15.9881 -34.9197
rradius 34.1411
rwrist 8.81583
rhand -3.8479 -46.9245
rfingers 7.12502
rthumb 21.9 -75.705
lclavicle -1.74931e-014 1.59028e-015
lhumerus 49.0796 37.0368 44.1809
lradius 33.6724
lwrist -10.5459
lhand -7.51475 -44.8811
lfingers 7.12502
lthumb 18.3757 -15.729
rfemur -41.6523 26.0839 7.78206
rtibia 15.4368
rfoot -50.1522 -23.1403
rtoes 65.7549
lfemur -41.3855 -12.5079 -14.4703
ltibia 28.4044
lfoot -4.50819 34.4565
ltoes 45.2228
310
root 8.79344 19.0842 7.43929 -159.656 2.13333 -178.791
lowerback 25.5262 1.59786 2.60287
upperback 2.32398 3.36166 -0.320417
thorax -11.4828 1.65252 -3.06635
lowerneck -15.6068 -4.42629 -7.56416
upperneck 4.57384 -4.96059 4.863
head 4.1781 -2.36471 2.30838
rclavicle 4.8901e-014 -1.82882e-014
rhumerus 44.0576 -12.8091 -33.7865
rradius 34.5717
rwrist 8.352
rhand -4.01166 -47.0747
rfingers 7.12502
rthumb 21.7428 -75.8735
lclavicle 4.8901e-014 -1.82882e-014
lhumerus 45.1858 33.7045 40.2774
lradius 35.8338
lwrist -8.8295
lhand -7.66402 -45.1317
lfingers 7.12502
lthumb 18.2321 -15.9662
rfemur -42.9412 25.4874 7.10226
rtibia 14.9669
rfoot -50.2527 -22.1532
rtoes 66.1759
lfemur -43.0829 -12.1952 -14.4925
ltibia 28.82
lfoot -1.44591 33.6946
ltoes 40.914
